<?xml version="1.0" encoding="utf-8" standalone="no"?>
<!DOCTYPE svg PUBLIC "-//W3C//DTD SVG 1.1//EN"
  "http://www.w3.org/Graphics/SVG/1.1/DTD/svg11.dtd">
<svg height="345.6pt" version="1.1" viewBox="0 0 460.8 345.6" width="460.8pt" xmlns="http://www.w3.org/2000/svg" xmlns:xlink="http://www.w3.org/1999/xlink">
 <metadata>
  <rdf:RDF xmlns:cc="http://creativecommons.org/ns#" xmlns:dc="http://purl.org/dc/elements/1.1/" xmlns:rdf="http://www.w3.org/1999/02/22-rdf-syntax-ns#">
   <cc:Work>
    <dc:type rdf:resource="http://purl.org/dc/dcmitype/StillImage"/>
    <dc:date>2022-04-20T20:45:06.511607</dc:date>
    <dc:format>image/svg+xml</dc:format>
    <dc:creator>
     <cc:Agent>
      <dc:title>Matplotlib v3.4.3, https://matplotlib.org/</dc:title>
     </cc:Agent>
    </dc:creator>
   </cc:Work>
  </rdf:RDF>
 </metadata>
 <defs>
  <style type="text/css">*{stroke-linecap:butt;stroke-linejoin:round;}</style>
 </defs>
 <g id="figure_1">
  <g id="patch_1">
   <path d="M 0 345.6 
L 460.8 345.6 
L 460.8 0 
L 0 0 
z
" style="fill:#ffffff;"/>
  </g>
  <g id="axes_1">
   <g id="patch_2">
    <path d="M 57.6 307.584 
L 414.72 307.584 
L 414.72 41.472 
L 57.6 41.472 
z
" style="fill:#ffffff;"/>
   </g>
   <g id="PathCollection_1">
    <defs>
     <path d="M 0 3 
C 0.795609 3 1.55874 2.683901 2.12132 2.12132 
C 2.683901 1.55874 3 0.795609 3 0 
C 3 -0.795609 2.683901 -1.55874 2.12132 -2.12132 
C 1.55874 -2.683901 0.795609 -3 0 -3 
C -0.795609 -3 -1.55874 -2.683901 -2.12132 -2.12132 
C -2.683901 -1.55874 -3 -0.795609 -3 0 
C -3 0.795609 -2.683901 1.55874 -2.12132 2.12132 
C -1.55874 2.683901 -0.795609 3 0 3 
z
" id="m75599c7cd5" style="stroke:#1f77b4;"/>
    </defs>
    <g clip-path="url(#p94a86ef792)">
     <use style="fill:#1f77b4;stroke:#1f77b4;" x="73.832727" xlink:href="#m75599c7cd5" y="295.488"/>
     <use style="fill:#1f77b4;stroke:#1f77b4;" x="106.298182" xlink:href="#m75599c7cd5" y="295.488"/>
     <use style="fill:#1f77b4;stroke:#1f77b4;" x="138.763636" xlink:href="#m75599c7cd5" y="295.488"/>
     <use style="fill:#1f77b4;stroke:#1f77b4;" x="171.229091" xlink:href="#m75599c7cd5" y="295.488"/>
     <use style="fill:#1f77b4;stroke:#1f77b4;" x="203.694545" xlink:href="#m75599c7cd5" y="295.488"/>
     <use style="fill:#1f77b4;stroke:#1f77b4;" x="236.16" xlink:href="#m75599c7cd5" y="295.488"/>
     <use style="fill:#1f77b4;stroke:#1f77b4;" x="268.625455" xlink:href="#m75599c7cd5" y="295.488"/>
     <use style="fill:#1f77b4;stroke:#1f77b4;" x="301.090909" xlink:href="#m75599c7cd5" y="295.488"/>
     <use style="fill:#1f77b4;stroke:#1f77b4;" x="333.556364" xlink:href="#m75599c7cd5" y="295.407788"/>
     <use style="fill:#1f77b4;stroke:#1f77b4;" x="366.021818" xlink:href="#m75599c7cd5" y="292.279512"/>
     <use style="fill:#1f77b4;stroke:#1f77b4;" x="398.487273" xlink:href="#m75599c7cd5" y="59.02243"/>
    </g>
   </g>
   <g id="PathCollection_2">
    <defs>
     <path d="M 0 3 
C 0.795609 3 1.55874 2.683901 2.12132 2.12132 
C 2.683901 1.55874 3 0.795609 3 0 
C 3 -0.795609 2.683901 -1.55874 2.12132 -2.12132 
C 1.55874 -2.683901 0.795609 -3 0 -3 
C -0.795609 -3 -1.55874 -2.683901 -2.12132 -2.12132 
C -2.683901 -1.55874 -3 -0.795609 -3 0 
C -3 0.795609 -2.683901 1.55874 -2.12132 2.12132 
C -1.55874 2.683901 -0.795609 3 0 3 
z
" id="m08c7be14c3" style="stroke:#ff7f0e;"/>
    </defs>
    <g clip-path="url(#p94a86ef792)">
     <use style="fill:#ff7f0e;stroke:#ff7f0e;" x="73.832727" xlink:href="#m08c7be14c3" y="295.488"/>
     <use style="fill:#ff7f0e;stroke:#ff7f0e;" x="106.298182" xlink:href="#m08c7be14c3" y="295.488"/>
     <use style="fill:#ff7f0e;stroke:#ff7f0e;" x="138.763636" xlink:href="#m08c7be14c3" y="295.488"/>
     <use style="fill:#ff7f0e;stroke:#ff7f0e;" x="171.229091" xlink:href="#m08c7be14c3" y="295.488"/>
     <use style="fill:#ff7f0e;stroke:#ff7f0e;" x="203.694545" xlink:href="#m08c7be14c3" y="295.488"/>
     <use style="fill:#ff7f0e;stroke:#ff7f0e;" x="236.16" xlink:href="#m08c7be14c3" y="295.488"/>
     <use style="fill:#ff7f0e;stroke:#ff7f0e;" x="268.625455" xlink:href="#m08c7be14c3" y="295.488"/>
     <use style="fill:#ff7f0e;stroke:#ff7f0e;" x="301.090909" xlink:href="#m08c7be14c3" y="294.966621"/>
     <use style="fill:#ff7f0e;stroke:#ff7f0e;" x="333.556364" xlink:href="#m08c7be14c3" y="292.961316"/>
     <use style="fill:#ff7f0e;stroke:#ff7f0e;" x="366.021818" xlink:href="#m08c7be14c3" y="277.600679"/>
     <use style="fill:#ff7f0e;stroke:#ff7f0e;" x="398.487273" xlink:href="#m08c7be14c3" y="53.568"/>
    </g>
   </g>
   <g id="matplotlib.axis_1">
    <g id="xtick_1">
     <g id="line2d_1">
      <path clip-path="url(#p94a86ef792)" d="M 73.832727 307.584 
L 73.832727 41.472 
" style="fill:none;stroke:#b0b0b0;stroke-dasharray:2.96,1.28;stroke-dashoffset:0;stroke-width:0.8;"/>
     </g>
     <g id="line2d_2">
      <defs>
       <path d="M 0 0 
L 0 3.5 
" id="m7edf383b14" style="stroke:#000000;stroke-width:0.8;"/>
      </defs>
      <g>
       <use style="stroke:#000000;stroke-width:0.8;" x="73.832727" xlink:href="#m7edf383b14" y="307.584"/>
      </g>
     </g>
     <g id="text_1">
      <!-- 0 -->
      <g transform="translate(70.651477 322.182437)scale(0.1 -0.1)">
       <defs>
        <path d="M 2034 4250 
Q 1547 4250 1301 3770 
Q 1056 3291 1056 2328 
Q 1056 1369 1301 889 
Q 1547 409 2034 409 
Q 2525 409 2770 889 
Q 3016 1369 3016 2328 
Q 3016 3291 2770 3770 
Q 2525 4250 2034 4250 
z
M 2034 4750 
Q 2819 4750 3233 4129 
Q 3647 3509 3647 2328 
Q 3647 1150 3233 529 
Q 2819 -91 2034 -91 
Q 1250 -91 836 529 
Q 422 1150 422 2328 
Q 422 3509 836 4129 
Q 1250 4750 2034 4750 
z
" id="DejaVuSans-30" transform="scale(0.015625)"/>
       </defs>
       <use xlink:href="#DejaVuSans-30"/>
      </g>
     </g>
    </g>
    <g id="xtick_2">
     <g id="line2d_3">
      <path clip-path="url(#p94a86ef792)" d="M 138.763636 307.584 
L 138.763636 41.472 
" style="fill:none;stroke:#b0b0b0;stroke-dasharray:2.96,1.28;stroke-dashoffset:0;stroke-width:0.8;"/>
     </g>
     <g id="line2d_4">
      <g>
       <use style="stroke:#000000;stroke-width:0.8;" x="138.763636" xlink:href="#m7edf383b14" y="307.584"/>
      </g>
     </g>
     <g id="text_2">
      <!-- 20 -->
      <g transform="translate(132.401136 322.182437)scale(0.1 -0.1)">
       <defs>
        <path d="M 1228 531 
L 3431 531 
L 3431 0 
L 469 0 
L 469 531 
Q 828 903 1448 1529 
Q 2069 2156 2228 2338 
Q 2531 2678 2651 2914 
Q 2772 3150 2772 3378 
Q 2772 3750 2511 3984 
Q 2250 4219 1831 4219 
Q 1534 4219 1204 4116 
Q 875 4013 500 3803 
L 500 4441 
Q 881 4594 1212 4672 
Q 1544 4750 1819 4750 
Q 2544 4750 2975 4387 
Q 3406 4025 3406 3419 
Q 3406 3131 3298 2873 
Q 3191 2616 2906 2266 
Q 2828 2175 2409 1742 
Q 1991 1309 1228 531 
z
" id="DejaVuSans-32" transform="scale(0.015625)"/>
       </defs>
       <use xlink:href="#DejaVuSans-32"/>
       <use x="63.623047" xlink:href="#DejaVuSans-30"/>
      </g>
     </g>
    </g>
    <g id="xtick_3">
     <g id="line2d_5">
      <path clip-path="url(#p94a86ef792)" d="M 203.694545 307.584 
L 203.694545 41.472 
" style="fill:none;stroke:#b0b0b0;stroke-dasharray:2.96,1.28;stroke-dashoffset:0;stroke-width:0.8;"/>
     </g>
     <g id="line2d_6">
      <g>
       <use style="stroke:#000000;stroke-width:0.8;" x="203.694545" xlink:href="#m7edf383b14" y="307.584"/>
      </g>
     </g>
     <g id="text_3">
      <!-- 40 -->
      <g transform="translate(197.332045 322.182437)scale(0.1 -0.1)">
       <defs>
        <path d="M 2419 4116 
L 825 1625 
L 2419 1625 
L 2419 4116 
z
M 2253 4666 
L 3047 4666 
L 3047 1625 
L 3713 1625 
L 3713 1100 
L 3047 1100 
L 3047 0 
L 2419 0 
L 2419 1100 
L 313 1100 
L 313 1709 
L 2253 4666 
z
" id="DejaVuSans-34" transform="scale(0.015625)"/>
       </defs>
       <use xlink:href="#DejaVuSans-34"/>
       <use x="63.623047" xlink:href="#DejaVuSans-30"/>
      </g>
     </g>
    </g>
    <g id="xtick_4">
     <g id="line2d_7">
      <path clip-path="url(#p94a86ef792)" d="M 268.625455 307.584 
L 268.625455 41.472 
" style="fill:none;stroke:#b0b0b0;stroke-dasharray:2.96,1.28;stroke-dashoffset:0;stroke-width:0.8;"/>
     </g>
     <g id="line2d_8">
      <g>
       <use style="stroke:#000000;stroke-width:0.8;" x="268.625455" xlink:href="#m7edf383b14" y="307.584"/>
      </g>
     </g>
     <g id="text_4">
      <!-- 60 -->
      <g transform="translate(262.262955 322.182437)scale(0.1 -0.1)">
       <defs>
        <path d="M 2113 2584 
Q 1688 2584 1439 2293 
Q 1191 2003 1191 1497 
Q 1191 994 1439 701 
Q 1688 409 2113 409 
Q 2538 409 2786 701 
Q 3034 994 3034 1497 
Q 3034 2003 2786 2293 
Q 2538 2584 2113 2584 
z
M 3366 4563 
L 3366 3988 
Q 3128 4100 2886 4159 
Q 2644 4219 2406 4219 
Q 1781 4219 1451 3797 
Q 1122 3375 1075 2522 
Q 1259 2794 1537 2939 
Q 1816 3084 2150 3084 
Q 2853 3084 3261 2657 
Q 3669 2231 3669 1497 
Q 3669 778 3244 343 
Q 2819 -91 2113 -91 
Q 1303 -91 875 529 
Q 447 1150 447 2328 
Q 447 3434 972 4092 
Q 1497 4750 2381 4750 
Q 2619 4750 2861 4703 
Q 3103 4656 3366 4563 
z
" id="DejaVuSans-36" transform="scale(0.015625)"/>
       </defs>
       <use xlink:href="#DejaVuSans-36"/>
       <use x="63.623047" xlink:href="#DejaVuSans-30"/>
      </g>
     </g>
    </g>
    <g id="xtick_5">
     <g id="line2d_9">
      <path clip-path="url(#p94a86ef792)" d="M 333.556364 307.584 
L 333.556364 41.472 
" style="fill:none;stroke:#b0b0b0;stroke-dasharray:2.96,1.28;stroke-dashoffset:0;stroke-width:0.8;"/>
     </g>
     <g id="line2d_10">
      <g>
       <use style="stroke:#000000;stroke-width:0.8;" x="333.556364" xlink:href="#m7edf383b14" y="307.584"/>
      </g>
     </g>
     <g id="text_5">
      <!-- 80 -->
      <g transform="translate(327.193864 322.182437)scale(0.1 -0.1)">
       <defs>
        <path d="M 2034 2216 
Q 1584 2216 1326 1975 
Q 1069 1734 1069 1313 
Q 1069 891 1326 650 
Q 1584 409 2034 409 
Q 2484 409 2743 651 
Q 3003 894 3003 1313 
Q 3003 1734 2745 1975 
Q 2488 2216 2034 2216 
z
M 1403 2484 
Q 997 2584 770 2862 
Q 544 3141 544 3541 
Q 544 4100 942 4425 
Q 1341 4750 2034 4750 
Q 2731 4750 3128 4425 
Q 3525 4100 3525 3541 
Q 3525 3141 3298 2862 
Q 3072 2584 2669 2484 
Q 3125 2378 3379 2068 
Q 3634 1759 3634 1313 
Q 3634 634 3220 271 
Q 2806 -91 2034 -91 
Q 1263 -91 848 271 
Q 434 634 434 1313 
Q 434 1759 690 2068 
Q 947 2378 1403 2484 
z
M 1172 3481 
Q 1172 3119 1398 2916 
Q 1625 2713 2034 2713 
Q 2441 2713 2670 2916 
Q 2900 3119 2900 3481 
Q 2900 3844 2670 4047 
Q 2441 4250 2034 4250 
Q 1625 4250 1398 4047 
Q 1172 3844 1172 3481 
z
" id="DejaVuSans-38" transform="scale(0.015625)"/>
       </defs>
       <use xlink:href="#DejaVuSans-38"/>
       <use x="63.623047" xlink:href="#DejaVuSans-30"/>
      </g>
     </g>
    </g>
    <g id="xtick_6">
     <g id="line2d_11">
      <path clip-path="url(#p94a86ef792)" d="M 398.487273 307.584 
L 398.487273 41.472 
" style="fill:none;stroke:#b0b0b0;stroke-dasharray:2.96,1.28;stroke-dashoffset:0;stroke-width:0.8;"/>
     </g>
     <g id="line2d_12">
      <g>
       <use style="stroke:#000000;stroke-width:0.8;" x="398.487273" xlink:href="#m7edf383b14" y="307.584"/>
      </g>
     </g>
     <g id="text_6">
      <!-- 100 -->
      <g transform="translate(388.943523 322.182437)scale(0.1 -0.1)">
       <defs>
        <path d="M 794 531 
L 1825 531 
L 1825 4091 
L 703 3866 
L 703 4441 
L 1819 4666 
L 2450 4666 
L 2450 531 
L 3481 531 
L 3481 0 
L 794 0 
L 794 531 
z
" id="DejaVuSans-31" transform="scale(0.015625)"/>
       </defs>
       <use xlink:href="#DejaVuSans-31"/>
       <use x="63.623047" xlink:href="#DejaVuSans-30"/>
       <use x="127.246094" xlink:href="#DejaVuSans-30"/>
      </g>
     </g>
    </g>
    <g id="text_7">
     <!-- Porcentaje olvidado -->
     <g transform="translate(186.981875 335.860562)scale(0.1 -0.1)">
      <defs>
       <path d="M 1259 4147 
L 1259 2394 
L 2053 2394 
Q 2494 2394 2734 2622 
Q 2975 2850 2975 3272 
Q 2975 3691 2734 3919 
Q 2494 4147 2053 4147 
L 1259 4147 
z
M 628 4666 
L 2053 4666 
Q 2838 4666 3239 4311 
Q 3641 3956 3641 3272 
Q 3641 2581 3239 2228 
Q 2838 1875 2053 1875 
L 1259 1875 
L 1259 0 
L 628 0 
L 628 4666 
z
" id="DejaVuSans-50" transform="scale(0.015625)"/>
       <path d="M 1959 3097 
Q 1497 3097 1228 2736 
Q 959 2375 959 1747 
Q 959 1119 1226 758 
Q 1494 397 1959 397 
Q 2419 397 2687 759 
Q 2956 1122 2956 1747 
Q 2956 2369 2687 2733 
Q 2419 3097 1959 3097 
z
M 1959 3584 
Q 2709 3584 3137 3096 
Q 3566 2609 3566 1747 
Q 3566 888 3137 398 
Q 2709 -91 1959 -91 
Q 1206 -91 779 398 
Q 353 888 353 1747 
Q 353 2609 779 3096 
Q 1206 3584 1959 3584 
z
" id="DejaVuSans-6f" transform="scale(0.015625)"/>
       <path d="M 2631 2963 
Q 2534 3019 2420 3045 
Q 2306 3072 2169 3072 
Q 1681 3072 1420 2755 
Q 1159 2438 1159 1844 
L 1159 0 
L 581 0 
L 581 3500 
L 1159 3500 
L 1159 2956 
Q 1341 3275 1631 3429 
Q 1922 3584 2338 3584 
Q 2397 3584 2469 3576 
Q 2541 3569 2628 3553 
L 2631 2963 
z
" id="DejaVuSans-72" transform="scale(0.015625)"/>
       <path d="M 3122 3366 
L 3122 2828 
Q 2878 2963 2633 3030 
Q 2388 3097 2138 3097 
Q 1578 3097 1268 2742 
Q 959 2388 959 1747 
Q 959 1106 1268 751 
Q 1578 397 2138 397 
Q 2388 397 2633 464 
Q 2878 531 3122 666 
L 3122 134 
Q 2881 22 2623 -34 
Q 2366 -91 2075 -91 
Q 1284 -91 818 406 
Q 353 903 353 1747 
Q 353 2603 823 3093 
Q 1294 3584 2113 3584 
Q 2378 3584 2631 3529 
Q 2884 3475 3122 3366 
z
" id="DejaVuSans-63" transform="scale(0.015625)"/>
       <path d="M 3597 1894 
L 3597 1613 
L 953 1613 
Q 991 1019 1311 708 
Q 1631 397 2203 397 
Q 2534 397 2845 478 
Q 3156 559 3463 722 
L 3463 178 
Q 3153 47 2828 -22 
Q 2503 -91 2169 -91 
Q 1331 -91 842 396 
Q 353 884 353 1716 
Q 353 2575 817 3079 
Q 1281 3584 2069 3584 
Q 2775 3584 3186 3129 
Q 3597 2675 3597 1894 
z
M 3022 2063 
Q 3016 2534 2758 2815 
Q 2500 3097 2075 3097 
Q 1594 3097 1305 2825 
Q 1016 2553 972 2059 
L 3022 2063 
z
" id="DejaVuSans-65" transform="scale(0.015625)"/>
       <path d="M 3513 2113 
L 3513 0 
L 2938 0 
L 2938 2094 
Q 2938 2591 2744 2837 
Q 2550 3084 2163 3084 
Q 1697 3084 1428 2787 
Q 1159 2491 1159 1978 
L 1159 0 
L 581 0 
L 581 3500 
L 1159 3500 
L 1159 2956 
Q 1366 3272 1645 3428 
Q 1925 3584 2291 3584 
Q 2894 3584 3203 3211 
Q 3513 2838 3513 2113 
z
" id="DejaVuSans-6e" transform="scale(0.015625)"/>
       <path d="M 1172 4494 
L 1172 3500 
L 2356 3500 
L 2356 3053 
L 1172 3053 
L 1172 1153 
Q 1172 725 1289 603 
Q 1406 481 1766 481 
L 2356 481 
L 2356 0 
L 1766 0 
Q 1100 0 847 248 
Q 594 497 594 1153 
L 594 3053 
L 172 3053 
L 172 3500 
L 594 3500 
L 594 4494 
L 1172 4494 
z
" id="DejaVuSans-74" transform="scale(0.015625)"/>
       <path d="M 2194 1759 
Q 1497 1759 1228 1600 
Q 959 1441 959 1056 
Q 959 750 1161 570 
Q 1363 391 1709 391 
Q 2188 391 2477 730 
Q 2766 1069 2766 1631 
L 2766 1759 
L 2194 1759 
z
M 3341 1997 
L 3341 0 
L 2766 0 
L 2766 531 
Q 2569 213 2275 61 
Q 1981 -91 1556 -91 
Q 1019 -91 701 211 
Q 384 513 384 1019 
Q 384 1609 779 1909 
Q 1175 2209 1959 2209 
L 2766 2209 
L 2766 2266 
Q 2766 2663 2505 2880 
Q 2244 3097 1772 3097 
Q 1472 3097 1187 3025 
Q 903 2953 641 2809 
L 641 3341 
Q 956 3463 1253 3523 
Q 1550 3584 1831 3584 
Q 2591 3584 2966 3190 
Q 3341 2797 3341 1997 
z
" id="DejaVuSans-61" transform="scale(0.015625)"/>
       <path d="M 603 3500 
L 1178 3500 
L 1178 -63 
Q 1178 -731 923 -1031 
Q 669 -1331 103 -1331 
L -116 -1331 
L -116 -844 
L 38 -844 
Q 366 -844 484 -692 
Q 603 -541 603 -63 
L 603 3500 
z
M 603 4863 
L 1178 4863 
L 1178 4134 
L 603 4134 
L 603 4863 
z
" id="DejaVuSans-6a" transform="scale(0.015625)"/>
       <path id="DejaVuSans-20" transform="scale(0.015625)"/>
       <path d="M 603 4863 
L 1178 4863 
L 1178 0 
L 603 0 
L 603 4863 
z
" id="DejaVuSans-6c" transform="scale(0.015625)"/>
       <path d="M 191 3500 
L 800 3500 
L 1894 563 
L 2988 3500 
L 3597 3500 
L 2284 0 
L 1503 0 
L 191 3500 
z
" id="DejaVuSans-76" transform="scale(0.015625)"/>
       <path d="M 603 3500 
L 1178 3500 
L 1178 0 
L 603 0 
L 603 3500 
z
M 603 4863 
L 1178 4863 
L 1178 4134 
L 603 4134 
L 603 4863 
z
" id="DejaVuSans-69" transform="scale(0.015625)"/>
       <path d="M 2906 2969 
L 2906 4863 
L 3481 4863 
L 3481 0 
L 2906 0 
L 2906 525 
Q 2725 213 2448 61 
Q 2172 -91 1784 -91 
Q 1150 -91 751 415 
Q 353 922 353 1747 
Q 353 2572 751 3078 
Q 1150 3584 1784 3584 
Q 2172 3584 2448 3432 
Q 2725 3281 2906 2969 
z
M 947 1747 
Q 947 1113 1208 752 
Q 1469 391 1925 391 
Q 2381 391 2643 752 
Q 2906 1113 2906 1747 
Q 2906 2381 2643 2742 
Q 2381 3103 1925 3103 
Q 1469 3103 1208 2742 
Q 947 2381 947 1747 
z
" id="DejaVuSans-64" transform="scale(0.015625)"/>
      </defs>
      <use xlink:href="#DejaVuSans-50"/>
      <use x="56.677734" xlink:href="#DejaVuSans-6f"/>
      <use x="117.859375" xlink:href="#DejaVuSans-72"/>
      <use x="156.722656" xlink:href="#DejaVuSans-63"/>
      <use x="211.703125" xlink:href="#DejaVuSans-65"/>
      <use x="273.226562" xlink:href="#DejaVuSans-6e"/>
      <use x="336.605469" xlink:href="#DejaVuSans-74"/>
      <use x="375.814453" xlink:href="#DejaVuSans-61"/>
      <use x="437.09375" xlink:href="#DejaVuSans-6a"/>
      <use x="464.876953" xlink:href="#DejaVuSans-65"/>
      <use x="526.400391" xlink:href="#DejaVuSans-20"/>
      <use x="558.1875" xlink:href="#DejaVuSans-6f"/>
      <use x="619.369141" xlink:href="#DejaVuSans-6c"/>
      <use x="647.152344" xlink:href="#DejaVuSans-76"/>
      <use x="706.332031" xlink:href="#DejaVuSans-69"/>
      <use x="734.115234" xlink:href="#DejaVuSans-64"/>
      <use x="797.591797" xlink:href="#DejaVuSans-61"/>
      <use x="858.871094" xlink:href="#DejaVuSans-64"/>
      <use x="922.347656" xlink:href="#DejaVuSans-6f"/>
     </g>
    </g>
   </g>
   <g id="matplotlib.axis_2">
    <g id="ytick_1">
     <g id="line2d_13">
      <path clip-path="url(#p94a86ef792)" d="M 57.6 295.488 
L 414.72 295.488 
" style="fill:none;stroke:#b0b0b0;stroke-dasharray:2.96,1.28;stroke-dashoffset:0;stroke-width:0.8;"/>
     </g>
     <g id="line2d_14">
      <defs>
       <path d="M 0 0 
L -3.5 0 
" id="m8dac5dd986" style="stroke:#000000;stroke-width:0.8;"/>
      </defs>
      <g>
       <use style="stroke:#000000;stroke-width:0.8;" x="57.6" xlink:href="#m8dac5dd986" y="295.488"/>
      </g>
     </g>
     <g id="text_8">
      <!-- 0.0 -->
      <g transform="translate(34.696875 299.287219)scale(0.1 -0.1)">
       <defs>
        <path d="M 684 794 
L 1344 794 
L 1344 0 
L 684 0 
L 684 794 
z
" id="DejaVuSans-2e" transform="scale(0.015625)"/>
       </defs>
       <use xlink:href="#DejaVuSans-30"/>
       <use x="63.623047" xlink:href="#DejaVuSans-2e"/>
       <use x="95.410156" xlink:href="#DejaVuSans-30"/>
      </g>
     </g>
    </g>
    <g id="ytick_2">
     <g id="line2d_15">
      <path clip-path="url(#p94a86ef792)" d="M 57.6 247.360679 
L 414.72 247.360679 
" style="fill:none;stroke:#b0b0b0;stroke-dasharray:2.96,1.28;stroke-dashoffset:0;stroke-width:0.8;"/>
     </g>
     <g id="line2d_16">
      <g>
       <use style="stroke:#000000;stroke-width:0.8;" x="57.6" xlink:href="#m8dac5dd986" y="247.360679"/>
      </g>
     </g>
     <g id="text_9">
      <!-- 0.1 -->
      <g transform="translate(34.696875 251.159898)scale(0.1 -0.1)">
       <use xlink:href="#DejaVuSans-30"/>
       <use x="63.623047" xlink:href="#DejaVuSans-2e"/>
       <use x="95.410156" xlink:href="#DejaVuSans-31"/>
      </g>
     </g>
    </g>
    <g id="ytick_3">
     <g id="line2d_17">
      <path clip-path="url(#p94a86ef792)" d="M 57.6 199.233358 
L 414.72 199.233358 
" style="fill:none;stroke:#b0b0b0;stroke-dasharray:2.96,1.28;stroke-dashoffset:0;stroke-width:0.8;"/>
     </g>
     <g id="line2d_18">
      <g>
       <use style="stroke:#000000;stroke-width:0.8;" x="57.6" xlink:href="#m8dac5dd986" y="199.233358"/>
      </g>
     </g>
     <g id="text_10">
      <!-- 0.2 -->
      <g transform="translate(34.696875 203.032577)scale(0.1 -0.1)">
       <use xlink:href="#DejaVuSans-30"/>
       <use x="63.623047" xlink:href="#DejaVuSans-2e"/>
       <use x="95.410156" xlink:href="#DejaVuSans-32"/>
      </g>
     </g>
    </g>
    <g id="ytick_4">
     <g id="line2d_19">
      <path clip-path="url(#p94a86ef792)" d="M 57.6 151.106037 
L 414.72 151.106037 
" style="fill:none;stroke:#b0b0b0;stroke-dasharray:2.96,1.28;stroke-dashoffset:0;stroke-width:0.8;"/>
     </g>
     <g id="line2d_20">
      <g>
       <use style="stroke:#000000;stroke-width:0.8;" x="57.6" xlink:href="#m8dac5dd986" y="151.106037"/>
      </g>
     </g>
     <g id="text_11">
      <!-- 0.3 -->
      <g transform="translate(34.696875 154.905256)scale(0.1 -0.1)">
       <defs>
        <path d="M 2597 2516 
Q 3050 2419 3304 2112 
Q 3559 1806 3559 1356 
Q 3559 666 3084 287 
Q 2609 -91 1734 -91 
Q 1441 -91 1130 -33 
Q 819 25 488 141 
L 488 750 
Q 750 597 1062 519 
Q 1375 441 1716 441 
Q 2309 441 2620 675 
Q 2931 909 2931 1356 
Q 2931 1769 2642 2001 
Q 2353 2234 1838 2234 
L 1294 2234 
L 1294 2753 
L 1863 2753 
Q 2328 2753 2575 2939 
Q 2822 3125 2822 3475 
Q 2822 3834 2567 4026 
Q 2313 4219 1838 4219 
Q 1578 4219 1281 4162 
Q 984 4106 628 3988 
L 628 4550 
Q 988 4650 1302 4700 
Q 1616 4750 1894 4750 
Q 2613 4750 3031 4423 
Q 3450 4097 3450 3541 
Q 3450 3153 3228 2886 
Q 3006 2619 2597 2516 
z
" id="DejaVuSans-33" transform="scale(0.015625)"/>
       </defs>
       <use xlink:href="#DejaVuSans-30"/>
       <use x="63.623047" xlink:href="#DejaVuSans-2e"/>
       <use x="95.410156" xlink:href="#DejaVuSans-33"/>
      </g>
     </g>
    </g>
    <g id="ytick_5">
     <g id="line2d_21">
      <path clip-path="url(#p94a86ef792)" d="M 57.6 102.978716 
L 414.72 102.978716 
" style="fill:none;stroke:#b0b0b0;stroke-dasharray:2.96,1.28;stroke-dashoffset:0;stroke-width:0.8;"/>
     </g>
     <g id="line2d_22">
      <g>
       <use style="stroke:#000000;stroke-width:0.8;" x="57.6" xlink:href="#m8dac5dd986" y="102.978716"/>
      </g>
     </g>
     <g id="text_12">
      <!-- 0.4 -->
      <g transform="translate(34.696875 106.777935)scale(0.1 -0.1)">
       <use xlink:href="#DejaVuSans-30"/>
       <use x="63.623047" xlink:href="#DejaVuSans-2e"/>
       <use x="95.410156" xlink:href="#DejaVuSans-34"/>
      </g>
     </g>
    </g>
    <g id="ytick_6">
     <g id="line2d_23">
      <path clip-path="url(#p94a86ef792)" d="M 57.6 54.851395 
L 414.72 54.851395 
" style="fill:none;stroke:#b0b0b0;stroke-dasharray:2.96,1.28;stroke-dashoffset:0;stroke-width:0.8;"/>
     </g>
     <g id="line2d_24">
      <g>
       <use style="stroke:#000000;stroke-width:0.8;" x="57.6" xlink:href="#m8dac5dd986" y="54.851395"/>
      </g>
     </g>
     <g id="text_13">
      <!-- 0.5 -->
      <g transform="translate(34.696875 58.650614)scale(0.1 -0.1)">
       <defs>
        <path d="M 691 4666 
L 3169 4666 
L 3169 4134 
L 1269 4134 
L 1269 2991 
Q 1406 3038 1543 3061 
Q 1681 3084 1819 3084 
Q 2600 3084 3056 2656 
Q 3513 2228 3513 1497 
Q 3513 744 3044 326 
Q 2575 -91 1722 -91 
Q 1428 -91 1123 -41 
Q 819 9 494 109 
L 494 744 
Q 775 591 1075 516 
Q 1375 441 1709 441 
Q 2250 441 2565 725 
Q 2881 1009 2881 1497 
Q 2881 1984 2565 2268 
Q 2250 2553 1709 2553 
Q 1456 2553 1204 2497 
Q 953 2441 691 2322 
L 691 4666 
z
" id="DejaVuSans-35" transform="scale(0.015625)"/>
       </defs>
       <use xlink:href="#DejaVuSans-30"/>
       <use x="63.623047" xlink:href="#DejaVuSans-2e"/>
       <use x="95.410156" xlink:href="#DejaVuSans-35"/>
      </g>
     </g>
    </g>
    <g id="text_14">
     <!-- Probabilidad de Error -->
     <g transform="translate(28.617187 227.063938)rotate(-90)scale(0.1 -0.1)">
      <defs>
       <path d="M 3116 1747 
Q 3116 2381 2855 2742 
Q 2594 3103 2138 3103 
Q 1681 3103 1420 2742 
Q 1159 2381 1159 1747 
Q 1159 1113 1420 752 
Q 1681 391 2138 391 
Q 2594 391 2855 752 
Q 3116 1113 3116 1747 
z
M 1159 2969 
Q 1341 3281 1617 3432 
Q 1894 3584 2278 3584 
Q 2916 3584 3314 3078 
Q 3713 2572 3713 1747 
Q 3713 922 3314 415 
Q 2916 -91 2278 -91 
Q 1894 -91 1617 61 
Q 1341 213 1159 525 
L 1159 0 
L 581 0 
L 581 4863 
L 1159 4863 
L 1159 2969 
z
" id="DejaVuSans-62" transform="scale(0.015625)"/>
       <path d="M 628 4666 
L 3578 4666 
L 3578 4134 
L 1259 4134 
L 1259 2753 
L 3481 2753 
L 3481 2222 
L 1259 2222 
L 1259 531 
L 3634 531 
L 3634 0 
L 628 0 
L 628 4666 
z
" id="DejaVuSans-45" transform="scale(0.015625)"/>
      </defs>
      <use xlink:href="#DejaVuSans-50"/>
      <use x="58.552734" xlink:href="#DejaVuSans-72"/>
      <use x="97.416016" xlink:href="#DejaVuSans-6f"/>
      <use x="158.597656" xlink:href="#DejaVuSans-62"/>
      <use x="222.074219" xlink:href="#DejaVuSans-61"/>
      <use x="283.353516" xlink:href="#DejaVuSans-62"/>
      <use x="346.830078" xlink:href="#DejaVuSans-69"/>
      <use x="374.613281" xlink:href="#DejaVuSans-6c"/>
      <use x="402.396484" xlink:href="#DejaVuSans-69"/>
      <use x="430.179688" xlink:href="#DejaVuSans-64"/>
      <use x="493.65625" xlink:href="#DejaVuSans-61"/>
      <use x="554.935547" xlink:href="#DejaVuSans-64"/>
      <use x="618.412109" xlink:href="#DejaVuSans-20"/>
      <use x="650.199219" xlink:href="#DejaVuSans-64"/>
      <use x="713.675781" xlink:href="#DejaVuSans-65"/>
      <use x="775.199219" xlink:href="#DejaVuSans-20"/>
      <use x="806.986328" xlink:href="#DejaVuSans-45"/>
      <use x="870.169922" xlink:href="#DejaVuSans-72"/>
      <use x="909.533203" xlink:href="#DejaVuSans-72"/>
      <use x="948.396484" xlink:href="#DejaVuSans-6f"/>
      <use x="1009.578125" xlink:href="#DejaVuSans-72"/>
     </g>
    </g>
   </g>
   <g id="line2d_25">
    <path clip-path="url(#p94a86ef792)" d="M 73.832727 295.488 
L 313.752436 295.488 
L 314.077091 295.327576 
L 314.401745 295.488 
L 314.7264 295.407788 
L 315.375709 295.488 
L 320.894836 295.488 
L 321.219491 295.327576 
L 321.544145 295.488 
L 326.738618 295.488 
L 327.063273 295.327576 
L 327.387927 295.488 
L 329.660509 295.488 
L 329.985164 295.247363 
L 330.309818 295.488 
L 330.959127 295.407788 
L 331.608436 295.407788 
L 331.933091 295.167151 
L 332.5824 295.488 
L 333.231709 295.327576 
L 333.881018 295.407788 
L 334.205673 295.407788 
L 334.854982 295.086939 
L 335.504291 295.488 
L 336.478255 295.247363 
L 336.802909 295.488 
L 337.127564 295.247363 
L 338.101527 295.407788 
L 340.049455 295.327576 
L 340.374109 295.086939 
L 340.698764 295.327576 
L 341.023418 295.167151 
L 341.348073 295.167151 
L 341.672727 295.327576 
L 341.997382 295.086939 
L 342.322036 295.006727 
L 342.646691 295.247363 
L 342.971345 295.327576 
L 343.296 295.247363 
L 343.620655 295.006727 
L 343.945309 295.327576 
L 344.269964 295.167151 
L 344.594618 295.327576 
L 344.919273 294.685878 
L 345.243927 295.086939 
L 345.568582 295.006727 
L 345.893236 295.488 
L 346.8672 295.086939 
L 347.516509 295.327576 
L 347.841164 295.086939 
L 348.165818 294.685878 
L 348.815127 294.76609 
L 349.139782 295.086939 
L 349.464436 294.846302 
L 349.789091 294.76609 
L 350.4384 295.006727 
L 350.763055 294.846302 
L 351.087709 295.006727 
L 351.412364 294.76609 
L 351.737018 295.167151 
L 352.061673 295.086939 
L 352.386327 294.76609 
L 352.710982 294.605666 
L 353.035636 294.926515 
L 353.360291 294.76609 
L 353.684945 294.284817 
L 354.0096 294.846302 
L 354.334255 294.846302 
L 354.983564 294.124393 
L 355.308218 294.365029 
L 355.632873 294.204605 
L 355.957527 294.365029 
L 356.282182 294.124393 
L 356.606836 294.76609 
L 356.931491 294.124393 
L 357.256145 294.445241 
L 357.5808 294.605666 
L 357.905455 294.525454 
L 358.230109 294.284817 
L 358.554764 292.760785 
L 358.879418 294.124393 
L 359.204073 292.92121 
L 359.528727 294.365029 
L 359.853382 294.04418 
L 360.178036 294.365029 
L 360.502691 293.643119 
L 360.827345 294.04418 
L 361.152 293.883756 
L 361.476655 293.482695 
L 361.801309 293.723332 
L 362.125964 293.723332 
L 362.775273 292.520149 
L 363.099927 293.963968 
L 363.424582 292.92121 
L 363.749236 293.562907 
L 364.073891 293.883756 
L 365.047855 292.600361 
L 365.372509 292.840997 
L 365.697164 293.242058 
L 366.021818 292.279512 
L 366.346473 291.958663 
L 367.320436 292.1993 
L 367.645091 291.878451 
L 367.969745 292.439936 
L 368.2944 291.798239 
L 368.619055 291.557602 
L 369.268364 292.119088 
L 369.593018 291.316966 
L 369.917673 291.156541 
L 370.242327 291.397178 
L 370.566982 289.151236 
L 370.891636 289.632509 
L 371.216291 291.156541 
L 371.540945 290.193995 
L 371.8656 288.750175 
L 372.190255 290.514844 
L 372.514909 288.028265 
L 372.839564 289.151236 
L 373.488873 288.509538 
L 373.813527 288.910599 
L 374.138182 287.145931 
L 374.462836 287.948053 
L 375.112145 286.985507 
L 375.4368 287.226143 
L 375.761455 285.782324 
L 376.086109 286.74487 
L 376.410764 285.702111 
L 376.735418 286.263597 
L 377.384727 284.980202 
L 377.709382 284.819777 
L 378.034036 284.017655 
L 378.358691 285.942748 
L 378.683345 283.777019 
L 379.008 283.135321 
L 379.332655 283.295745 
L 379.657309 281.932138 
L 379.981964 281.851926 
L 380.306618 281.932138 
L 380.631273 280.568531 
L 381.280582 279.285135 
L 381.605236 279.365347 
L 381.929891 275.194313 
L 382.5792 277.921528 
L 382.903855 275.354737 
L 383.228509 276.317284 
L 383.553164 273.26922 
L 384.202473 273.429645 
L 384.527127 272.707735 
L 384.851782 271.103491 
L 385.176436 272.226462 
L 385.825745 267.253305 
L 386.1504 265.007363 
L 386.475055 266.772032 
L 386.799709 264.606302 
L 387.124364 264.52609 
L 387.449018 262.280149 
L 387.773673 261.638451 
L 388.098327 257.146568 
L 388.422982 256.745507 
L 388.747636 255.542324 
L 389.072291 255.06105 
L 389.396945 250.649379 
L 389.7216 248.403438 
L 390.046255 245.275162 
L 391.344873 239.580095 
L 391.669527 233.483968 
L 391.994182 233.965241 
L 392.318836 232.601634 
L 392.643491 223.216806 
L 392.968145 221.772987 
L 393.2928 218.724923 
L 393.942109 211.425613 
L 394.266764 204.206515 
L 394.591418 203.083544 
L 394.916073 194.661263 
L 395.240727 192.01426 
L 395.565382 187.442164 
L 395.890036 175.731183 
L 396.214691 168.271448 
L 396.539345 163.458716 
L 396.864 149.74243 
L 397.188655 144.689061 
L 397.513309 123.593252 
L 397.837964 110.278027 
L 398.162618 90.626037 
L 398.487273 59.02243 
L 398.487273 59.02243 
" style="fill:none;stroke:#1f77b4;stroke-linecap:square;stroke-width:1.5;"/>
   </g>
   <g id="line2d_26">
    <path clip-path="url(#p94a86ef792)" d="M 73.832727 295.488 
L 257.262545 295.488 
L 257.5872 295.367682 
L 258.236509 295.488 
L 259.535127 295.407788 
L 259.859782 295.488 
L 260.509091 295.367682 
L 260.833745 295.488 
L 261.807709 295.447894 
L 273.819927 295.488 
L 274.144582 295.327576 
L 274.469236 295.407788 
L 274.793891 295.327576 
L 276.092509 295.407788 
L 276.741818 295.247363 
L 277.066473 295.447894 
L 277.391127 295.367682 
L 277.715782 295.488 
L 279.339055 295.247363 
L 279.663709 295.488 
L 280.313018 295.247363 
L 280.637673 295.488 
L 281.286982 295.367682 
L 286.1568 295.327576 
L 286.806109 295.167151 
L 287.130764 295.327576 
L 288.104727 295.367682 
L 288.754036 295.006727 
L 289.078691 295.327576 
L 289.403345 294.966621 
L 289.728 295.407788 
L 290.701964 295.127045 
L 291.026618 295.327576 
L 291.351273 295.287469 
L 291.675927 295.367682 
L 292.000582 295.167151 
L 292.325236 295.447894 
L 292.649891 295.327576 
L 292.974545 295.327576 
L 293.2992 295.167151 
L 293.623855 295.287469 
L 293.948509 295.167151 
L 294.597818 295.127045 
L 294.922473 295.327576 
L 295.247127 295.207257 
L 295.571782 295.247363 
L 295.896436 295.086939 
L 296.221091 295.247363 
L 296.545745 295.127045 
L 297.195055 295.287469 
L 297.844364 294.966621 
L 298.493673 295.167151 
L 299.792291 295.207257 
L 300.116945 295.006727 
L 300.766255 295.207257 
L 301.090909 294.966621 
L 301.740218 295.207257 
L 302.064873 294.926515 
L 302.714182 295.006727 
L 303.038836 294.886408 
L 303.363491 295.247363 
L 303.688145 294.806196 
L 304.0128 295.046833 
L 304.337455 294.926515 
L 304.662109 295.046833 
L 304.986764 294.886408 
L 305.311418 295.006727 
L 305.636073 294.725984 
L 305.960727 294.685878 
L 306.285382 294.846302 
L 306.934691 294.926515 
L 307.259345 295.287469 
L 307.584 294.926515 
L 308.233309 294.886408 
L 309.207273 294.966621 
L 309.856582 294.725984 
L 310.181236 295.006727 
L 310.505891 294.685878 
L 310.830545 294.886408 
L 311.1552 294.605666 
L 311.479855 294.725984 
L 312.129164 294.605666 
L 312.453818 294.725984 
L 312.778473 294.405135 
L 313.103127 294.725984 
L 313.752436 294.56556 
L 314.077091 294.485347 
L 314.401745 294.645772 
L 314.7264 294.525454 
L 315.051055 294.204605 
L 315.375709 294.846302 
L 316.025018 294.084286 
L 316.349673 294.926515 
L 316.674327 294.365029 
L 316.998982 294.204605 
L 317.323636 294.445241 
L 317.648291 294.525454 
L 317.972945 294.244711 
L 318.2976 294.365029 
L 318.622255 294.084286 
L 318.946909 294.204605 
L 319.271564 294.164499 
L 319.596218 294.645772 
L 320.245527 294.004074 
L 320.570182 294.004074 
L 320.894836 294.365029 
L 321.219491 294.244711 
L 321.544145 294.324923 
L 321.8688 293.963968 
L 322.193455 294.525454 
L 322.518109 294.324923 
L 323.167418 294.324923 
L 323.492073 293.883756 
L 323.816727 293.683225 
L 324.141382 294.124393 
L 324.466036 294.04418 
L 324.790691 293.643119 
L 325.44 293.84365 
L 325.764655 293.84365 
L 326.089309 293.963968 
L 326.738618 293.402483 
L 327.387927 293.84365 
L 327.712582 293.201952 
L 328.037236 293.803544 
L 328.361891 293.482695 
L 329.0112 293.562907 
L 329.335855 293.723332 
L 329.660509 293.322271 
L 329.985164 293.442589 
L 330.309818 293.322271 
L 330.634473 292.92121 
L 330.959127 293.001422 
L 331.283782 292.640467 
L 331.608436 293.482695 
L 331.933091 292.480042 
L 332.257745 292.39983 
L 332.5824 293.362377 
L 333.231709 291.958663 
L 333.556364 292.961316 
L 333.881018 292.439936 
L 334.530327 292.720679 
L 334.854982 292.760785 
L 335.179636 292.560255 
L 335.504291 292.760785 
L 335.828945 293.242058 
L 336.1536 291.998769 
L 336.478255 291.758133 
L 337.127564 292.640467 
L 337.452218 292.319618 
L 337.776873 291.597708 
L 338.101527 292.239406 
L 338.426182 291.798239 
L 338.750836 291.718027 
L 339.075491 291.918557 
L 339.400145 291.597708 
L 339.7248 292.038875 
L 340.049455 292.078981 
L 340.374109 291.758133 
L 340.698764 290.835692 
L 341.023418 291.517496 
L 341.348073 291.076329 
L 341.672727 291.316966 
L 341.997382 290.875798 
L 342.322036 291.196647 
L 342.646691 290.915905 
L 342.971345 291.116435 
L 343.296 290.795586 
L 343.620655 290.75548 
L 343.945309 290.434631 
L 344.594618 289.391873 
L 344.919273 290.474737 
L 345.243927 289.512191 
L 345.568582 290.274207 
L 345.893236 289.792934 
L 346.542545 290.073676 
L 346.8672 289.712721 
L 347.191855 289.873146 
L 347.516509 289.271554 
L 347.841164 289.632509 
L 348.165818 288.950706 
L 348.490473 288.710069 
L 348.815127 289.712721 
L 349.789091 287.907947 
L 350.113745 289.11113 
L 350.4384 287.787629 
L 350.763055 287.948053 
L 351.087709 287.827735 
L 351.412364 288.710069 
L 351.737018 288.068371 
L 352.061673 288.750175 
L 352.386327 286.624552 
L 352.710982 287.306355 
L 353.035636 286.704764 
L 353.360291 287.105825 
L 353.684945 287.867841 
L 354.0096 286.704764 
L 354.334255 286.424021 
L 354.658909 287.145931 
L 354.983564 286.424021 
L 355.308218 285.381263 
L 355.632873 286.143279 
L 355.957527 285.461475 
L 356.282182 285.220838 
L 356.606836 285.621899 
L 356.931491 283.736912 
L 357.256145 285.060414 
L 357.5808 284.37861 
L 357.905455 284.498928 
L 358.230109 284.859883 
L 358.554764 283.295745 
L 358.879418 282.573836 
L 359.204073 283.375958 
L 359.528727 283.295745 
L 359.853382 282.533729 
L 360.178036 283.135321 
L 360.827345 281.81182 
L 361.152 281.851926 
L 361.476655 280.849273 
L 362.125964 282.172775 
L 362.450618 281.210228 
L 362.775273 280.809167 
L 363.099927 280.648743 
L 363.424582 280.167469 
L 363.749236 279.204923 
L 364.398545 280.007045 
L 364.7232 278.322589 
L 365.047855 277.640785 
L 365.372509 277.720997 
L 365.697164 275.836011 
L 366.021818 277.600679 
L 366.346473 275.876117 
L 366.671127 277.199618 
L 366.995782 275.595374 
L 367.320436 275.033889 
L 367.645091 275.314631 
L 367.969745 276.758451 
L 368.2944 272.54731 
L 368.619055 270.542005 
L 369.268364 273.630175 
L 369.593018 272.226462 
L 369.917673 272.386886 
L 370.242327 270.822748 
L 370.566982 271.063385 
L 370.891636 270.862854 
L 371.216291 270.301369 
L 371.540945 268.576806 
L 371.8656 270.301369 
L 372.190255 267.935109 
L 372.514909 267.213199 
L 372.839564 268.135639 
L 373.164218 268.175745 
L 373.488873 266.050122 
L 373.813527 266.130334 
L 374.138182 263.80418 
L 374.462836 264.766727 
L 374.787491 263.964605 
L 375.112145 262.560891 
L 375.4368 261.718663 
L 375.761455 261.758769 
L 376.086109 261.919194 
L 376.410764 261.879088 
L 377.709382 257.106462 
L 378.034036 256.986143 
L 378.358691 255.141263 
L 378.683345 256.865825 
L 379.008 253.296382 
L 379.332655 254.258928 
L 379.657309 253.21617 
L 379.981964 250.769698 
L 380.306618 249.726939 
L 380.631273 250.288424 
L 380.955927 248.68418 
L 381.280582 247.922164 
L 381.605236 244.914207 
L 381.929891 245.636117 
L 382.254545 244.633464 
L 382.5792 241.906249 
L 382.903855 241.785931 
L 383.228509 243.149538 
L 383.553164 238.417019 
L 383.877818 236.371607 
L 384.202473 235.649698 
L 384.527127 235.649698 
L 384.851782 232.481316 
L 385.176436 232.64174 
L 385.501091 228.671236 
L 385.825745 230.395798 
L 386.1504 228.149857 
L 386.475055 227.829008 
L 386.799709 222.615215 
L 387.124364 224.139247 
L 387.449018 219.727576 
L 387.773673 219.326515 
L 388.098327 217.481634 
L 388.422982 217.481634 
L 388.747636 209.741156 
L 389.072291 210.142218 
L 389.396945 208.77861 
L 389.7216 208.698398 
L 390.046255 202.682483 
L 390.370909 201.238663 
L 390.695564 200.837602 
L 391.020218 199.393782 
L 391.669527 193.257549 
L 392.318836 188.966196 
L 392.643491 184.19357 
L 392.968145 181.666886 
L 393.617455 174.447788 
L 393.942109 173.003968 
L 394.266764 163.137867 
L 394.591418 162.977443 
L 395.240727 153.993676 
L 395.890036 144.087469 
L 396.214691 138.11166 
L 396.539345 130.010228 
L 396.864 125.478239 
L 397.188655 116.41426 
L 397.513309 102.096382 
L 397.837964 95.238239 
L 398.487273 53.568 
L 398.487273 53.568 
" style="fill:none;stroke:#ff7f0e;stroke-linecap:square;stroke-width:1.5;"/>
   </g>
   <g id="patch_3">
    <path d="M 57.6 307.584 
L 57.6 41.472 
" style="fill:none;stroke:#000000;stroke-linecap:square;stroke-linejoin:miter;stroke-width:0.8;"/>
   </g>
   <g id="patch_4">
    <path d="M 414.72 307.584 
L 414.72 41.472 
" style="fill:none;stroke:#000000;stroke-linecap:square;stroke-linejoin:miter;stroke-width:0.8;"/>
   </g>
   <g id="patch_5">
    <path d="M 57.6 307.584 
L 414.72 307.584 
" style="fill:none;stroke:#000000;stroke-linecap:square;stroke-linejoin:miter;stroke-width:0.8;"/>
   </g>
   <g id="patch_6">
    <path d="M 57.6 41.472 
L 414.72 41.472 
" style="fill:none;stroke:#000000;stroke-linecap:square;stroke-linejoin:miter;stroke-width:0.8;"/>
   </g>
   <g id="text_15">
    <!-- Numero de Neuronas 600 -->
    <g transform="translate(159.064687 35.472)scale(0.12 -0.12)">
     <defs>
      <path d="M 628 4666 
L 1478 4666 
L 3547 763 
L 3547 4666 
L 4159 4666 
L 4159 0 
L 3309 0 
L 1241 3903 
L 1241 0 
L 628 0 
L 628 4666 
z
" id="DejaVuSans-4e" transform="scale(0.015625)"/>
      <path d="M 544 1381 
L 544 3500 
L 1119 3500 
L 1119 1403 
Q 1119 906 1312 657 
Q 1506 409 1894 409 
Q 2359 409 2629 706 
Q 2900 1003 2900 1516 
L 2900 3500 
L 3475 3500 
L 3475 0 
L 2900 0 
L 2900 538 
Q 2691 219 2414 64 
Q 2138 -91 1772 -91 
Q 1169 -91 856 284 
Q 544 659 544 1381 
z
M 1991 3584 
L 1991 3584 
z
" id="DejaVuSans-75" transform="scale(0.015625)"/>
      <path d="M 3328 2828 
Q 3544 3216 3844 3400 
Q 4144 3584 4550 3584 
Q 5097 3584 5394 3201 
Q 5691 2819 5691 2113 
L 5691 0 
L 5113 0 
L 5113 2094 
Q 5113 2597 4934 2840 
Q 4756 3084 4391 3084 
Q 3944 3084 3684 2787 
Q 3425 2491 3425 1978 
L 3425 0 
L 2847 0 
L 2847 2094 
Q 2847 2600 2669 2842 
Q 2491 3084 2119 3084 
Q 1678 3084 1418 2786 
Q 1159 2488 1159 1978 
L 1159 0 
L 581 0 
L 581 3500 
L 1159 3500 
L 1159 2956 
Q 1356 3278 1631 3431 
Q 1906 3584 2284 3584 
Q 2666 3584 2933 3390 
Q 3200 3197 3328 2828 
z
" id="DejaVuSans-6d" transform="scale(0.015625)"/>
      <path d="M 2834 3397 
L 2834 2853 
Q 2591 2978 2328 3040 
Q 2066 3103 1784 3103 
Q 1356 3103 1142 2972 
Q 928 2841 928 2578 
Q 928 2378 1081 2264 
Q 1234 2150 1697 2047 
L 1894 2003 
Q 2506 1872 2764 1633 
Q 3022 1394 3022 966 
Q 3022 478 2636 193 
Q 2250 -91 1575 -91 
Q 1294 -91 989 -36 
Q 684 19 347 128 
L 347 722 
Q 666 556 975 473 
Q 1284 391 1588 391 
Q 1994 391 2212 530 
Q 2431 669 2431 922 
Q 2431 1156 2273 1281 
Q 2116 1406 1581 1522 
L 1381 1569 
Q 847 1681 609 1914 
Q 372 2147 372 2553 
Q 372 3047 722 3315 
Q 1072 3584 1716 3584 
Q 2034 3584 2315 3537 
Q 2597 3491 2834 3397 
z
" id="DejaVuSans-73" transform="scale(0.015625)"/>
     </defs>
     <use xlink:href="#DejaVuSans-4e"/>
     <use x="74.804688" xlink:href="#DejaVuSans-75"/>
     <use x="138.183594" xlink:href="#DejaVuSans-6d"/>
     <use x="235.595703" xlink:href="#DejaVuSans-65"/>
     <use x="297.119141" xlink:href="#DejaVuSans-72"/>
     <use x="335.982422" xlink:href="#DejaVuSans-6f"/>
     <use x="397.164062" xlink:href="#DejaVuSans-20"/>
     <use x="428.951172" xlink:href="#DejaVuSans-64"/>
     <use x="492.427734" xlink:href="#DejaVuSans-65"/>
     <use x="553.951172" xlink:href="#DejaVuSans-20"/>
     <use x="585.738281" xlink:href="#DejaVuSans-4e"/>
     <use x="660.542969" xlink:href="#DejaVuSans-65"/>
     <use x="722.066406" xlink:href="#DejaVuSans-75"/>
     <use x="785.445312" xlink:href="#DejaVuSans-72"/>
     <use x="824.308594" xlink:href="#DejaVuSans-6f"/>
     <use x="885.490234" xlink:href="#DejaVuSans-6e"/>
     <use x="948.869141" xlink:href="#DejaVuSans-61"/>
     <use x="1010.148438" xlink:href="#DejaVuSans-73"/>
     <use x="1062.248047" xlink:href="#DejaVuSans-20"/>
     <use x="1094.035156" xlink:href="#DejaVuSans-36"/>
     <use x="1157.658203" xlink:href="#DejaVuSans-30"/>
     <use x="1221.28125" xlink:href="#DejaVuSans-30"/>
    </g>
   </g>
   <g id="legend_1">
    <g id="patch_7">
     <path d="M 64.6 78.82825 
L 164.215625 78.82825 
Q 166.215625 78.82825 166.215625 76.82825 
L 166.215625 48.472 
Q 166.215625 46.472 164.215625 46.472 
L 64.6 46.472 
Q 62.6 46.472 62.6 48.472 
L 62.6 76.82825 
Q 62.6 78.82825 64.6 78.82825 
z
" style="fill:#ffffff;opacity:0.8;stroke:#cccccc;stroke-linejoin:miter;"/>
    </g>
    <g id="line2d_27">
     <path d="M 66.6 54.570437 
L 86.6 54.570437 
" style="fill:none;stroke:#1f77b4;stroke-linecap:square;stroke-width:1.5;"/>
    </g>
    <g id="line2d_28"/>
    <g id="text_16">
     <!-- Patrones =10 -->
     <g transform="translate(94.6 58.070437)scale(0.1 -0.1)">
      <defs>
       <path d="M 678 2906 
L 4684 2906 
L 4684 2381 
L 678 2381 
L 678 2906 
z
M 678 1631 
L 4684 1631 
L 4684 1100 
L 678 1100 
L 678 1631 
z
" id="DejaVuSans-3d" transform="scale(0.015625)"/>
      </defs>
      <use xlink:href="#DejaVuSans-50"/>
      <use x="55.802734" xlink:href="#DejaVuSans-61"/>
      <use x="117.082031" xlink:href="#DejaVuSans-74"/>
      <use x="156.291016" xlink:href="#DejaVuSans-72"/>
      <use x="195.154297" xlink:href="#DejaVuSans-6f"/>
      <use x="256.335938" xlink:href="#DejaVuSans-6e"/>
      <use x="319.714844" xlink:href="#DejaVuSans-65"/>
      <use x="381.238281" xlink:href="#DejaVuSans-73"/>
      <use x="433.337891" xlink:href="#DejaVuSans-20"/>
      <use x="465.125" xlink:href="#DejaVuSans-3d"/>
      <use x="548.914062" xlink:href="#DejaVuSans-31"/>
      <use x="612.537109" xlink:href="#DejaVuSans-30"/>
     </g>
    </g>
    <g id="line2d_29">
     <path d="M 66.6 69.248562 
L 86.6 69.248562 
" style="fill:none;stroke:#ff7f0e;stroke-linecap:square;stroke-width:1.5;"/>
    </g>
    <g id="line2d_30"/>
    <g id="text_17">
     <!-- Patrones =20 -->
     <g transform="translate(94.6 72.748562)scale(0.1 -0.1)">
      <use xlink:href="#DejaVuSans-50"/>
      <use x="55.802734" xlink:href="#DejaVuSans-61"/>
      <use x="117.082031" xlink:href="#DejaVuSans-74"/>
      <use x="156.291016" xlink:href="#DejaVuSans-72"/>
      <use x="195.154297" xlink:href="#DejaVuSans-6f"/>
      <use x="256.335938" xlink:href="#DejaVuSans-6e"/>
      <use x="319.714844" xlink:href="#DejaVuSans-65"/>
      <use x="381.238281" xlink:href="#DejaVuSans-73"/>
      <use x="433.337891" xlink:href="#DejaVuSans-20"/>
      <use x="465.125" xlink:href="#DejaVuSans-3d"/>
      <use x="548.914062" xlink:href="#DejaVuSans-32"/>
      <use x="612.537109" xlink:href="#DejaVuSans-30"/>
     </g>
    </g>
   </g>
  </g>
 </g>
 <defs>
  <clipPath id="p94a86ef792">
   <rect height="266.112" width="357.12" x="57.6" y="41.472"/>
  </clipPath>
 </defs>
</svg>
